<svg width="16" height="16" viewBox="0 0 16 16" fill="none" xmlns="http://www.w3.org/2000/svg">
<g id="Category">
<path id="Vector" d="M6.70523 0.39491L3.64468 5.3971C3.30737 5.9401 3.70228 6.64765 4.344 6.64765H10.4569C11.0986 6.64765 11.4935 5.9401 11.1562 5.3971L8.10387 0.39491C7.78301 -0.131637 7.0261 -0.131637 6.70523 0.39491Z" fill="#39D3BB"/>
<path id="Vector_2" d="M11.9296 15.6977C13.9743 15.6977 15.6318 14.0401 15.6318 11.9954C15.6318 9.95069 13.9743 8.29312 11.9296 8.29312C9.88485 8.29312 8.22729 9.95069 8.22729 11.9954C8.22729 14.0401 9.88485 15.6977 11.9296 15.6977Z" fill="#39D3BB"/>
<path id="Vector_3" d="M0.822729 15.2863H5.7591C6.2116 15.2863 6.58183 14.9161 6.58183 14.4636V9.52721C6.58183 9.07471 6.2116 8.70448 5.7591 8.70448H0.822729C0.370228 8.70448 0 9.07471 0 9.52721V14.4636C0 14.9161 0.370228 15.2863 0.822729 15.2863Z" fill="#39D3BB"/>
</g>
</svg>
